<svg xmlns="http://www.w3.org/2000/svg" viewBox="0 0 1273.4 678.4"><path d="M383.1 460.3V329.4c-38.5 0-73.8 13.5-101.7 35.9 8-25.1 12.4-51.9 12.4-79.6 0-70-27.3-135.8-76.7-185.2-49.5-49.6-115.2-76.8-185.2-76.8v130.9c35 0 67.9 13.6 92.7 38.4 24.7 24.7 38.4 57.6 38.4 92.6 0 72.2-58.8 131-131 131v130.9c75.3 0 143.3-32 191.1-83.1-1.5 8.9-2.3 18-2.3 27.3 0 89.6 72.9 162.4 162.4 162.4V523.3c-17.4 0-31.5-14.1-31.5-31.5-.1-17.4 14.1-31.5 31.4-31.5z" fill="#ff3336"/><path d="M476.2 260.5c0-48.5 39.4-87.9 87.9-87.9 48.5 0 87.9 39.4 87.9 87.9 0 48.5-39.4 87.9-87.9 87.9-48.5 0-87.9-39.4-87.9-87.9zm157.1 0c0-38.7-29.8-70.5-69.1-70.5-39.4 0-69.1 31.9-69.1 70.5s29.8 70.5 69.1 70.5c39.3.1 69.1-31.8 69.1-70.5zm34.7 27c0-33.5 25.1-60.9 60-60.9 15 0 32.8 7.5 42.9 21.3V175h17.6v171.1h-17.3v-19.2c-10.1 14.1-28.1 21.6-43.1 21.6-34.6-.1-60.1-27.5-60.1-61zm104.7 0c0-24.4-18.7-44.5-43.8-44.5-23.9 0-42.6 19.9-42.6 44.5S705 332 728.9 332c25.1 0 43.8-19.9 43.8-44.5zm41.1.9c0-35.2 25.5-61.9 60.7-61.9 33.7 0 60 23.2 60 59.1v7.7H831.4c2.3 23.2 20.6 38.9 44.1 38.9 19 0 32.3-9.8 39.6-24.1l15.7 7.7c-10.8 20.4-29.1 32.6-55.3 32.6-37.3 0-61.7-25.5-61.7-60zm18.5-11.7H916c-3.3-21.1-18.7-34-41.5-34-21.1 0-37.5 14.3-42.2 34zm122.3-47.8h17.8v15.9c7.7-11.2 20.9-18.3 37.5-18.3 21.1 0 35.2 9.8 41.7 23.9 7.5-14.3 22.7-23.9 42.4-23.9 33.7 0 52.3 20.6 52.3 50.6V346H1128v-70c0-19.5-13.1-33.3-34.2-33.3-19.2 0-34.5 13.1-34.5 35.2v68.2h-18v-72.2c0-18.7-13.1-31.2-32.8-31.2-20.6 0-35.9 13.8-35.9 37.3v66.1h-18V228.9zM476.2 462c0-48.5 39.4-87.9 87.9-87.9 32.6 0 60.9 17.8 76.2 44.1l-15.7 9.1c-11.7-21.3-34-35.9-60.5-35.9-39.4 0-69.1 31.9-69.1 70.5 0 38.7 29.8 70.5 69.1 70.5 29.8 0 51.1-15.7 62.3-38.4l16.2 8.4c-14.8 28.1-42.9 47.3-78.5 47.3-48.5.2-87.9-39.2-87.9-87.7zm190.5 26.9c0-33.5 25.1-60.9 60-60.9 15 0 33 7.7 43.1 21.6v-19.2h18v117.2h-18v-19.2c-10.1 14.1-28.1 21.6-43.1 21.6-34.5-.1-60-27.5-60-61.1zm104.7 0c0-24.4-18.7-44.5-43.8-44.5-23.9 0-42.6 19.9-42.6 44.5s18.7 44.5 42.6 44.5c25.1.1 43.8-19.9 43.8-44.5zm60.1 40.8v71.7h-17.6v-171h17.3v19.2c9.8-13.8 27.9-21.6 43.1-21.6 34.9 0 60 27.4 60 60.9s-25.5 60.9-60 60.9c-16.3.1-33.2-6.5-42.8-20.1zm84.6-40.8c0-24.6-18.7-44.5-42.7-44.5-25.1 0-43.8 20.2-43.8 44.5 0 24.6 18.7 44.5 43.8 44.5 23.9.1 42.7-19.9 42.7-44.5zm38.5-96.3h18.3V410h-18.3v-17.4zm0 37.8h18.3v117.2h-18.3V430.4zm38.4 0h20.2v-27.7l18.3-10.1v37.7h27.7v16.4h-27.7v55.8c0 23.9 4.5 27.9 27.7 27.9v17.1h-2.6c-34.2 0-43.4-9.8-43.4-44.8v-56H993v-16.3zm80.2 58.5c0-33.5 25.1-60.9 60-60.9 15 0 33 7.7 43.1 21.6v-19.2h18v117.2h-18v-19.2c-10.1 14.1-28.1 21.6-43.1 21.6-34.5-.1-60-27.5-60-61.1zm104.7 0c0-24.4-18.7-44.5-43.8-44.5-23.9 0-42.7 19.9-42.7 44.5s18.7 44.5 42.7 44.5c25.1.1 43.8-19.9 43.8-44.5zm44.6-112.4h18.3v171.1h-18.3V376.5z"/></svg>