<?xml version="1.0" encoding="utf-8"?>
<!-- Generator: Adobe Illustrator 26.0.3, SVG Export Plug-In . SVG Version: 6.00 Build 0)  -->
<svg version="1.1" id="Layer_1" xmlns="http://www.w3.org/2000/svg" xmlns:xlink="http://www.w3.org/1999/xlink" x="0px" y="0px"
	 viewBox="0 0 1273.4 678.4" style="enable-background:new 0 0 1273.4 678.4;" xml:space="preserve">
<style type="text/css">
	.st0{fill:#FF3336;}
</style>
<path class="st0" d="M383.1,460.3V329.4c-38.5,0-73.8,13.5-101.7,35.9c8-25.1,12.4-51.9,12.4-79.6c0-70-27.3-135.8-76.7-185.2
	C167.6,50.9,101.9,23.7,31.9,23.7v130.9c35,0,67.9,13.6,92.7,38.4c24.7,24.7,38.4,57.6,38.4,92.6c0,72.2-58.8,131-131,131v130.9
	c75.3,0,143.3-32,191.1-83.1c-1.5,8.9-2.3,18-2.3,27.3c0,89.6,72.9,162.4,162.4,162.4V523.3c-17.4,0-31.5-14.1-31.5-31.5
	C351.6,474.4,365.8,460.3,383.1,460.3z"/>
<g>
	<path d="M476.2,260.5c0-48.5,39.4-87.9,87.9-87.9c48.5,0,87.9,39.4,87.9,87.9c0,48.5-39.4,87.9-87.9,87.9
		C515.6,348.4,476.2,309,476.2,260.5z M633.3,260.5c0-38.7-29.8-70.5-69.1-70.5c-39.4,0-69.1,31.9-69.1,70.5s29.8,70.5,69.1,70.5
		C603.5,331.1,633.3,299.2,633.3,260.5z"/>
	<path d="M668,287.5c0-33.5,25.1-60.9,60-60.9c15,0,32.8,7.5,42.9,21.3V175h17.6v171.1h-17.3v-19.2c-10.1,14.1-28.1,21.6-43.1,21.6
		C693.5,348.4,668,321,668,287.5z M772.7,287.5c0-24.4-18.7-44.5-43.8-44.5c-23.9,0-42.6,19.9-42.6,44.5c0,24.6,18.7,44.5,42.6,44.5
		C754,332,772.7,312.1,772.7,287.5z"/>
	<path d="M813.8,288.4c0-35.2,25.5-61.9,60.7-61.9c33.7,0,60,23.2,60,59.1v7.7H831.4c2.3,23.2,20.6,38.9,44.1,38.9
		c19,0,32.3-9.8,39.6-24.1l15.7,7.7c-10.8,20.4-29.1,32.6-55.3,32.6C838.2,348.4,813.8,322.9,813.8,288.4z M832.3,276.7H916
		c-3.3-21.1-18.7-34-41.5-34C853.4,242.7,837,257,832.3,276.7z"/>
	<path d="M954.6,228.9h17.8v15.9c7.7-11.2,20.9-18.3,37.5-18.3c21.1,0,35.2,9.8,41.7,23.9c7.5-14.3,22.7-23.9,42.4-23.9
		c33.7,0,52.3,20.6,52.3,50.6v68.9H1128V276c0-19.5-13.1-33.3-34.2-33.3c-19.2,0-34.5,13.1-34.5,35.2v68.2h-18v-72.2
		c0-18.7-13.1-31.2-32.8-31.2c-20.6,0-35.9,13.8-35.9,37.3v66.1h-18V228.9z"/>
	<path d="M476.2,462c0-48.5,39.4-87.9,87.9-87.9c32.6,0,60.9,17.8,76.2,44.1l-15.7,9.1c-11.7-21.3-34-35.9-60.5-35.9
		c-39.4,0-69.1,31.9-69.1,70.5c0,38.7,29.8,70.5,69.1,70.5c29.8,0,51.1-15.7,62.3-38.4l16.2,8.4c-14.8,28.1-42.9,47.3-78.5,47.3
		C515.6,549.9,476.2,510.5,476.2,462z"/>
	<path d="M666.7,488.9c0-33.5,25.1-60.9,60-60.9c15,0,33,7.7,43.1,21.6v-19.2h18v117.2h-18v-19.2c-10.1,14.1-28.1,21.6-43.1,21.6
		C692.2,549.9,666.7,522.5,666.7,488.9z M771.4,488.9c0-24.4-18.7-44.5-43.8-44.5c-23.9,0-42.6,19.9-42.6,44.5
		c0,24.6,18.7,44.5,42.6,44.5C752.7,533.5,771.4,513.5,771.4,488.9z"/>
	<path d="M831.5,529.7v71.7h-17.6V430.4h17.3v19.2c9.8-13.8,27.9-21.6,43.1-21.6c34.9,0,60,27.4,60,60.9c0,33.5-25.5,60.9-60,60.9
		C858,549.9,841.1,543.3,831.5,529.7z M916.1,488.9c0-24.6-18.7-44.5-42.7-44.5c-25.1,0-43.8,20.2-43.8,44.5
		c0,24.6,18.7,44.5,43.8,44.5C897.3,533.5,916.1,513.5,916.1,488.9z"/>
	<path d="M954.6,392.6h18.3V410h-18.3V392.6z M954.6,430.4h18.3v117.2h-18.3V430.4z"/>
	<path d="M993,430.4h20.2v-27.7l18.3-10.1v37.7h27.7v16.4h-27.7v55.8c0,23.9,4.5,27.9,27.7,27.9v17.1h-2.6
		c-34.2,0-43.4-9.8-43.4-44.8v-56H993V430.4z"/>
	<path d="M1073.2,488.9c0-33.5,25.1-60.9,60-60.9c15,0,33,7.7,43.1,21.6v-19.2h18v117.2h-18v-19.2c-10.1,14.1-28.1,21.6-43.1,21.6
		C1098.7,549.9,1073.2,522.5,1073.2,488.9z M1177.9,488.9c0-24.4-18.7-44.5-43.8-44.5c-23.9,0-42.7,19.9-42.7,44.5
		c0,24.6,18.7,44.5,42.7,44.5C1159.2,533.5,1177.9,513.5,1177.9,488.9z"/>
	<path d="M1222.5,376.5h18.3v171.1h-18.3V376.5z"/>
</g>
</svg>
